<?xml version="1.0" encoding="UTF-8"?>
<svg xmlns="http://www.w3.org/2000/svg" xmlns:xlink="http://www.w3.org/1999/xlink" width="16pt" height="18pt" viewBox="0 0 16 18" version="1.1">
<g id="surface1">
<path style=" stroke:none;fill-rule:nonzero;fill:rgb(0%,0%,0%);fill-opacity:1;" d="M 2.285156 13.5 L 6.855469 13.5 L 6.855469 14.625 L 2.285156 14.625 Z M 8 6.75 L 2.285156 6.75 L 2.285156 7.875 L 8 7.875 Z M 10.285156 10.125 L 10.285156 7.875 L 6.855469 11.25 L 10.285156 14.625 L 10.285156 12.375 L 16 12.375 L 16 10.125 Z M 5.144531 9 L 2.285156 9 L 2.285156 10.125 L 5.144531 10.125 Z M 2.285156 12.375 L 5.144531 12.375 L 5.144531 11.25 L 2.285156 11.25 Z M 12.570312 13.5 L 13.714844 13.5 L 13.714844 15.75 C 13.695312 16.066406 13.589844 16.328125 13.375 16.539062 C 13.160156 16.75 12.894531 16.859375 12.570312 16.875 L 1.144531 16.875 C 0.519531 16.875 0 16.367188 0 15.75 L 0 3.375 C 0 2.757812 0.519531 2.25 1.144531 2.25 L 4.570312 2.25 C 4.570312 1 5.589844 0 6.855469 0 C 8.125 0 9.144531 1 9.144531 2.25 L 12.570312 2.25 C 13.195312 2.25 13.714844 2.757812 13.714844 3.375 L 13.714844 9 L 12.570312 9 L 12.570312 5.625 L 1.144531 5.625 L 1.144531 15.75 L 12.570312 15.75 Z M 2.285156 4.5 L 11.429688 4.5 C 11.429688 3.882812 10.910156 3.375 10.285156 3.375 L 9.144531 3.375 C 8.519531 3.375 8 2.867188 8 2.25 C 8 1.632812 7.480469 1.125 6.855469 1.125 C 6.230469 1.125 5.714844 1.632812 5.714844 2.25 C 5.714844 2.867188 5.195312 3.375 4.570312 3.375 L 3.429688 3.375 C 2.804688 3.375 2.285156 3.882812 2.285156 4.5 Z M 2.285156 4.5 "/>
</g>
</svg>
