<?xml version="1.0" encoding="UTF-8"?>
<svg xmlns="http://www.w3.org/2000/svg" xmlns:xlink="http://www.w3.org/1999/xlink" width="35pt" height="35pt" viewBox="0 0 35 35" version="1.1">
<g id="surface1">
<path style=" stroke:none;fill-rule:nonzero;fill:rgb(0%,0%,0%);fill-opacity:1;" d="M 17.511719 0 C 7.855469 0 0 7.855469 0 17.511719 C 0 27.167969 7.855469 35.023438 17.511719 35.023438 C 27.167969 35.023438 35.023438 27.167969 35.023438 17.511719 C 35.023438 7.855469 27.167969 0 17.511719 0 Z M 17.511719 31.316406 C 9.898438 31.316406 3.707031 25.121094 3.707031 17.511719 C 3.707031 9.902344 9.898438 3.707031 17.511719 3.707031 C 25.121094 3.707031 31.316406 9.902344 31.316406 17.511719 C 31.316406 25.121094 25.121094 31.316406 17.511719 31.316406 Z M 17.511719 31.316406 "/>
<path style=" stroke:none;fill-rule:nonzero;fill:rgb(0%,0%,0%);fill-opacity:1;" d="M 19.289062 15.8125 L 15.734375 15.8125 C 15.136719 15.8125 14.652344 16.296875 14.652344 16.890625 L 14.652344 27.429688 C 14.652344 28.027344 15.136719 28.511719 15.734375 28.511719 L 19.289062 28.511719 C 19.886719 28.511719 20.367188 28.027344 20.367188 27.429688 L 20.367188 16.890625 C 20.367188 16.296875 19.886719 15.8125 19.289062 15.8125 Z M 19.289062 15.8125 "/>
<path style=" stroke:none;fill-rule:nonzero;fill:rgb(0%,0%,0%);fill-opacity:1;" d="M 17.511719 6.511719 C 15.761719 6.511719 14.34375 7.929688 14.34375 9.679688 C 14.34375 11.425781 15.761719 12.847656 17.511719 12.847656 C 19.257812 12.847656 20.679688 11.429688 20.679688 9.679688 C 20.679688 7.929688 19.257812 6.511719 17.511719 6.511719 Z M 17.511719 6.511719 "/>
</g>
</svg>
